<svg width="21" height="26" viewBox="0 0 21 26" fill="none" xmlns="http://www.w3.org/2000/svg">
<path d="M10.5 0C8.64348 0 6.86301 0.714594 5.55025 1.98658C4.2375 3.25857 3.5 4.98375 3.5 6.78261V7.91304H5.83333V6.78261C5.83333 5.58337 6.325 4.43325 7.20017 3.58526C8.07534 2.73727 9.26232 2.26087 10.5 2.26087C11.7377 2.26087 12.9247 2.73727 13.7998 3.58526C14.675 4.43325 15.1667 5.58337 15.1667 6.78261V7.91304H17.5V6.78261C17.5 4.98375 16.7625 3.25857 15.4497 1.98658C14.137 0.714594 12.3565 0 10.5 0Z" fill="#7E7E7E"/>
<path d="M17.5 10.174H3.5C2.57174 10.174 1.6815 10.5312 1.02513 11.1672C0.368749 11.8032 0 12.6658 0 13.5653V22.6087C0 23.5082 0.368749 24.3708 1.02513 25.0067C1.6815 25.6427 2.57174 26 3.5 26H17.5C18.4283 26 19.3185 25.6427 19.9749 25.0067C20.6313 24.3708 21 23.5082 21 22.6087V13.5653C21 12.6658 20.6313 11.8032 19.9749 11.1672C19.3185 10.5312 18.4283 10.174 17.5 10.174ZM11.6667 18.9122V21.4783C11.6667 21.7781 11.5437 22.0656 11.325 22.2776C11.1062 22.4896 10.8094 22.6087 10.5 22.6087C10.1906 22.6087 9.89383 22.4896 9.67504 22.2776C9.45625 22.0656 9.33333 21.7781 9.33333 21.4783V18.9122C8.8885 18.6634 8.54084 18.2792 8.34428 17.8194C8.14772 17.3596 8.11323 16.8498 8.24617 16.3691C8.37911 15.8883 8.67205 15.4635 9.07956 15.1606C9.48706 14.8576 9.98635 14.6934 10.5 14.6934C11.0136 14.6934 11.5129 14.8576 11.9204 15.1606C12.3279 15.4635 12.6209 15.8883 12.7538 16.3691C12.8868 16.8498 12.8523 17.3596 12.6557 17.8194C12.4592 18.2792 12.1115 18.6634 11.6667 18.9122Z" fill="#7E7E7E"/>
</svg>
