<svg width="25" height="20" viewBox="0 0 25 20" fill="none" xmlns="http://www.w3.org/2000/svg">
<path d="M13.3626 10.075C13.133 10.2823 12.8345 10.397 12.5251 10.397C12.2157 10.397 11.9173 10.2823 11.6876 10.075L1.08765 0.4375C1.50359 0.152573 1.99597 6.69248e-05 2.50015 0H22.5001C23.0043 6.69248e-05 23.4967 0.152573 23.9126 0.4375L13.3626 10.075Z" fill="#7E7E7E"/>
<path d="M25 2.825V16.25C25 17.2446 24.6049 18.1984 23.9017 18.9017C23.1984 19.6049 22.2446 20 21.25 20H3.75C2.75544 20 1.80161 19.6049 1.09835 18.9017C0.395088 18.1984 0 17.2446 0 16.25V2.825L10.85 12.725C11.3076 13.1224 11.8939 13.3401 12.5 13.3375C13.1136 13.3362 13.7053 13.1093 14.1625 12.7L25 2.825Z" fill="#7E7E7E"/>
</svg>
