<svg width="25" height="25" viewBox="0 0 25 25" fill="none" xmlns="http://www.w3.org/2000/svg">
<path d="M12.4999 16.8269C15.4206 16.8269 17.7883 14.4592 17.7883 11.5385C17.7883 8.61772 15.4206 6.25 12.4999 6.25C9.57915 6.25 7.21143 8.61772 7.21143 11.5385C7.21143 14.4592 9.57915 16.8269 12.4999 16.8269Z" fill="#7E7E7E"/>
<path d="M12.5 0C10.0277 0 7.61099 0.733112 5.55538 2.10663C3.49976 3.48015 1.89761 5.43238 0.951511 7.71645C0.00541606 10.0005 -0.242126 12.5139 0.24019 14.9386C0.722505 17.3634 1.91301 19.5907 3.66117 21.3388C5.40933 23.087 7.63661 24.2775 10.0614 24.7598C12.4861 25.2421 14.9995 24.9946 17.2835 24.0485C19.5676 23.1024 21.5199 21.5002 22.8934 19.4446C24.2669 17.389 25 14.9723 25 12.5C24.9936 9.18674 23.6746 6.01101 21.3318 3.66818C18.989 1.32535 15.8133 0.00635333 12.5 0ZM20.4087 19.5192C19.6303 18.4027 18.6273 17.4611 17.4639 16.7548C16.1282 18.0345 14.3498 18.7489 12.5 18.7489C10.6502 18.7489 8.87181 18.0345 7.53606 16.7548C6.37268 17.4611 5.36969 18.4027 4.59135 19.5192C3.23772 17.9949 2.35343 16.1119 2.04491 14.0968C1.73639 12.0817 2.01678 10.0204 2.85235 8.16088C3.68791 6.3014 5.04304 4.723 6.75465 3.61565C8.46626 2.50829 10.4614 1.91917 12.5 1.91917C14.5386 1.91917 16.5337 2.50829 18.2454 3.61565C19.957 4.723 21.3121 6.3014 22.1477 8.16088C22.9832 10.0204 23.2636 12.0817 22.9551 14.0968C22.6466 16.1119 21.7623 17.9949 20.4087 19.5192Z" fill="#7E7E7E"/>
</svg>
