<svg width="25" height="25" viewBox="0 0 25 25" fill="none" xmlns="http://www.w3.org/2000/svg">
<path d="M22.3687 11.8408H25.0003C25.0003 5.09079 19.9042 0 13.145 0V2.63158C18.4898 2.63158 22.3687 6.50395 22.3687 11.8408Z" fill="#7E7E7E"/>
<path d="M13.1583 7.89469C15.9254 7.89469 17.1056 9.07496 17.1056 11.8421H19.7372C19.7372 7.59864 17.4017 5.26311 13.1583 5.26311V7.89469ZM17.6609 15.0565C17.4081 14.8267 17.0758 14.7042 16.7343 14.7147C16.3928 14.7253 16.0688 14.8681 15.8306 15.1131L12.682 18.3513C11.9241 18.2065 10.4004 17.7315 8.83195 16.1671C7.26353 14.5973 6.78853 13.0697 6.64774 12.3171L9.88327 9.16706C10.1285 8.92907 10.2716 8.60499 10.2822 8.26339C10.2927 7.92179 10.17 7.58948 9.93985 7.3368L5.078 1.99074C4.8478 1.73727 4.52785 1.58351 4.1861 1.56214C3.84435 1.54076 3.50774 1.65345 3.24774 1.87627L0.392477 4.32496C0.164991 4.55327 0.0292125 4.85713 0.0108973 5.1789C-0.00883953 5.50785 -0.385155 13.3 5.65695 19.3447C10.928 24.6144 17.5306 25 19.3491 25C19.6149 25 19.778 24.9921 19.8214 24.9894C20.1432 24.9714 20.4469 24.835 20.6741 24.6065L23.1214 21.75C23.3444 21.4901 23.4573 21.1536 23.4362 20.8119C23.4151 20.4701 23.2616 20.1501 23.0083 19.9197L17.6609 15.0565Z" fill="#7E7E7E"/>
</svg>
