<svg width="25" height="23" viewBox="0 0 25 23" fill="none" xmlns="http://www.w3.org/2000/svg">
<path d="M3.8578 4.83522L0.244939 1.50668L1.87979 0L24.7551 21.0829L23.1202 22.5885L19.2959 19.064C17.2639 20.2519 14.9063 20.8809 12.5 20.8774C6.27022 20.8774 1.08721 16.746 0 11.2943C0.496845 8.81405 1.84933 6.54836 3.8578 4.83522ZM15.6854 15.7366L13.9939 14.1777C13.3469 14.463 12.6199 14.5563 11.913 14.4447C11.2061 14.3332 10.5541 14.0223 10.047 13.5549C9.53986 13.0876 9.20252 12.4867 9.0815 11.8352C8.96047 11.1838 9.0617 10.5137 9.37124 9.91747L7.67978 8.35862C6.94463 9.38241 6.61599 10.6089 6.7495 11.8304C6.88302 13.0518 7.47048 14.1933 8.41242 15.0614C9.35436 15.9295 10.5929 16.4709 11.9183 16.5939C13.2437 16.7169 14.5745 16.4141 15.6854 15.7366ZM7.84846 2.52036C9.28921 1.99862 10.8594 1.71112 12.5 1.71112C18.7298 1.71112 23.9128 5.84251 25 11.2943C24.646 13.0679 23.8502 14.7416 22.6754 16.1838L18.2156 12.0737C18.3481 11.2512 18.2697 10.4117 17.9868 9.62216C17.7038 8.83267 17.2242 8.11522 16.5863 7.5273C15.9483 6.93938 15.1698 6.49733 14.3132 6.23657C13.4565 5.9758 12.5455 5.90357 11.6531 6.02566L7.84846 2.52036Z" fill="#7E7E7E"/>
</svg>
