<svg width="25" height="21" viewBox="0 0 25 21" fill="none" xmlns="http://www.w3.org/2000/svg">
<path d="M0 10.5C1.08605 4.52667 6.27022 0 12.5 0C18.7298 0 23.9128 4.52667 25 10.5C23.9139 16.4733 18.7298 21 12.5 21C6.27022 21 1.08721 16.4733 0 10.5ZM12.5 16.3333C14.0321 16.3333 15.5015 15.7188 16.5849 14.6248C17.6682 13.5308 18.2769 12.0471 18.2769 10.5C18.2769 8.9529 17.6682 7.46917 16.5849 6.37521C15.5015 5.28125 14.0321 4.66667 12.5 4.66667C10.9679 4.66667 9.49851 5.28125 8.41513 6.37521C7.33176 7.46917 6.72313 8.9529 6.72313 10.5C6.72313 12.0471 7.33176 13.5308 8.41513 14.6248C9.49851 15.7188 10.9679 16.3333 12.5 16.3333ZM12.5 14C11.5807 14 10.6991 13.6313 10.0491 12.9749C9.39906 12.3185 9.03388 11.4283 9.03388 10.5C9.03388 9.57174 9.39906 8.6815 10.0491 8.02513C10.6991 7.36875 11.5807 7 12.5 7C13.4193 7 14.3009 7.36875 14.9509 8.02513C15.6009 8.6815 15.9661 9.57174 15.9661 10.5C15.9661 11.4283 15.6009 12.3185 14.9509 12.9749C14.3009 13.6313 13.4193 14 12.5 14Z" fill="#7E7E7E"/>
</svg>
