<svg width="40" height="56" viewBox="0 0 40 56" fill="none" xmlns="http://www.w3.org/2000/svg">
<path d="M36.2484 29.9163C35.7697 28.8441 34.6778 27.9821 33.3513 27.6513L23.9524 25.3079L38.5826 8.88107C39.3137 8.05912 39.454 6.94838 38.9538 5.91834C38.452 4.88793 37.3821 4.07648 36.0971 3.75609L23.6104 0.642821C21.9099 0.218821 20.1882 0.742455 19.3807 1.92101L1.39066 28.1948C0.815087 29.0355 0.791188 30.0826 1.32415 31.0382C1.85563 31.9933 2.88465 32.7232 4.09723 33.0255L14.1631 35.5353L8.25876 51.7261C7.84592 52.859 8.51125 54.1656 9.84528 54.8313C11.1799 55.4946 12.8016 55.3342 13.7091 54.4473L35.6943 32.9324C36.5159 32.1317 36.7242 30.9878 36.2484 29.9163Z" fill="black"/>
</svg>
