<svg width="16" height="12" viewBox="0 0 16 12" fill="none" xmlns="http://www.w3.org/2000/svg">
<path d="M11.0318 0.410659L15.5909 5.01004C15.8636 5.2641 16 5.61015 16 5.99124C16 6.37233 15.8636 6.714 15.5909 6.97244L11.0318 11.5893C10.4909 12.1369 9.60909 12.1369 9.06818 11.5893C8.52727 11.0418 8.52727 10.157 9.06818 9.60942L11.2545 7.40172H1.39091C0.622727 7.40172 0 6.77532 0 6C0 5.22468 0.622727 4.59828 1.39091 4.59828H11.2545L9.06364 2.39058C8.52273 1.84304 8.52273 0.958204 9.06364 0.410659C9.60909 -0.136886 10.4864 -0.136886 11.0318 0.410659Z" fill="white"/>
</svg>
