<svg width="16" height="12" viewBox="0 0 16 12" fill="none" xmlns="http://www.w3.org/2000/svg">
<path d="M4.96818 11.5893L0.409091 6.98996C0.136364 6.7359 0 6.38985 0 6.00876C0 5.62767 0.136364 5.286 0.409091 5.02756L4.96818 0.410659C5.50909 -0.136887 6.39091 -0.136887 6.93182 0.410659C7.47273 0.958203 7.47273 1.84304 6.93182 2.39058L4.74545 4.59828H14.6091C15.3773 4.59828 16 5.22468 16 6C16 6.77532 15.3773 7.40172 14.6091 7.40172H4.74545L6.93636 9.60942C7.47727 10.157 7.47727 11.0418 6.93636 11.5893C6.39091 12.1369 5.51364 12.1369 4.96818 11.5893Z" fill="white"/>
</svg>
