<svg width="24" height="12" viewBox="0 0 24 12" fill="none" xmlns="http://www.w3.org/2000/svg">
<path d="M22.2865 0.294092L14.999 7.59409L9.71078 2.29409C9.61785 2.20036 9.50729 2.12597 9.38547 2.0752C9.26365 2.02443 9.13299 1.99829 9.00102 1.99829C8.86906 1.99829 8.73839 2.02443 8.61658 2.0752C8.49476 2.12597 8.3842 2.20036 8.29126 2.29409L0.293991 10.2941C0.105752 10.4824 0 10.7378 0 11.0041C0 11.2704 0.105752 11.5258 0.293991 11.7141C0.482231 11.9024 0.737539 12.0082 1.00375 12.0082C1.26996 12.0082 1.52527 11.9024 1.71351 11.7141L9.00102 4.41409L14.2892 9.71409C14.3822 9.80782 14.4927 9.88221 14.6145 9.93298C14.7363 9.98375 14.867 10.0099 14.999 10.0099C15.1309 10.0099 15.2616 9.98375 15.3834 9.93298C15.5052 9.88221 15.6158 9.80782 15.7087 9.71409L23.706 1.71409C23.8942 1.52579 24 1.27039 24 1.00409C24 0.73779 23.8942 0.482395 23.706 0.294092C23.5178 0.105788 23.2625 0 22.9963 0C22.73 0 22.4747 0.105788 22.2865 0.294092Z" fill="black"/>
</svg>
