<svg width="39" height="56" viewBox="0 0 39 56" fill="none" xmlns="http://www.w3.org/2000/svg">
<path d="M35.7961 29.9163C35.3174 28.8441 34.2255 27.9821 32.8991 27.6513L23.5001 25.3079L38.1303 8.88107C38.8615 8.05912 39.0017 6.94838 38.5015 5.91834C37.9998 4.88793 36.9298 4.07648 35.6448 3.75609L23.1582 0.642821C21.4576 0.218821 19.7359 0.742455 18.9285 1.92101L0.938393 28.1948C0.362816 29.0355 0.338918 30.0826 0.871877 31.0382C1.40336 31.9933 2.43238 32.7232 3.64496 33.0255L13.7109 35.5353L7.80649 51.7261C7.39365 52.859 8.05898 54.1656 9.39301 54.8313C10.7276 55.4946 12.3493 55.3342 13.2568 54.4473L35.2421 32.9324C36.0637 32.1317 36.2719 30.9878 35.7961 29.9163Z" fill="url(#paint0_linear_118_25)"/>
<defs>
<linearGradient id="paint0_linear_118_25" x1="25.5278" y1="1.23363" x2="11.9802" y2="55.5702" gradientUnits="userSpaceOnUse">
<stop offset="0.15" stop-color="#9CFCFF" stop-opacity="0.45"/>
<stop offset="0.45" stop-color="#A599F0" stop-opacity="0.6"/>
<stop offset="0.6" stop-color="#D3B3FE" stop-opacity="0.8"/>
<stop offset="1" stop-color="#BB87FF" stop-opacity="0.733333"/>
</linearGradient>
</defs>
</svg>
