<svg width="24" height="26" viewBox="0 0 24 26" fill="none" xmlns="http://www.w3.org/2000/svg">
<path fill-rule="evenodd" clip-rule="evenodd" d="M5.85002 5.90909C5.85002 2.64559 8.46916 0 11.7 0C14.9309 0 17.55 2.64559 17.55 5.90909C17.55 9.17259 14.9309 11.8182 11.7 11.8182C8.46916 11.8182 5.85002 9.17259 5.85002 5.90909ZM11.7 2.36364C9.76145 2.36364 8.19002 3.951 8.19002 5.90909C8.19002 7.86719 9.76145 9.45455 11.7 9.45455C13.6386 9.45455 15.21 7.86719 15.21 5.90909C15.21 3.951 13.6386 2.36364 11.7 2.36364Z" fill="black"/>
<path fill-rule="evenodd" clip-rule="evenodd" d="M0 24.8182C0 18.2912 5.23827 13 11.7 13C18.1617 13 23.4 18.2912 23.4 24.8182V26H0V24.8182ZM2.41241 23.6364H20.9876C20.4118 18.9726 16.4731 15.3636 11.7 15.3636C6.92684 15.3636 2.98817 18.9726 2.41241 23.6364Z" fill="black"/>
</svg>
