<svg width="23" height="23" viewBox="0 0 23 23" fill="none" xmlns="http://www.w3.org/2000/svg">
<path d="M19.1668 15.9195C18.6506 15.9194 18.1397 16.0158 17.6649 16.2031C17.1902 16.3904 16.7615 16.6647 16.4047 17.0093L7.5412 12.4031C7.71288 11.8076 7.71288 11.1809 7.5412 10.5854L16.4047 5.97922C17.0502 6.59729 17.9174 6.9768 18.8441 7.04665C19.7707 7.11649 20.6931 6.87189 21.4385 6.35865C22.1839 5.84542 22.7011 5.09877 22.8933 4.25859C23.0854 3.41841 22.9393 2.54234 22.4823 1.79451C22.0254 1.04667 21.2889 0.478389 20.4108 0.196116C19.5328 -0.0861574 18.5734 -0.0630509 17.7125 0.261106C16.8516 0.585263 16.1482 1.18823 15.734 1.95704C15.3198 2.72586 15.2234 3.60777 15.4627 4.43756L6.59914 9.04374C6.0697 8.53385 5.38719 8.18194 4.63943 8.03327C3.89166 7.88461 3.11284 7.94599 2.40316 8.20953C1.69347 8.47306 1.08538 8.92669 0.657118 9.51205C0.228853 10.0974 0 10.7878 0 11.4942C0 12.2007 0.228853 12.8911 0.657118 13.4764C1.08538 14.0618 1.69347 14.5154 2.40316 14.779C3.11284 15.0425 3.89166 15.1039 4.63943 14.9552C5.38719 14.8065 6.0697 14.4546 6.59914 13.9447L15.4627 18.5509C15.2572 19.2655 15.2991 20.0216 15.5825 20.7131C15.8659 21.4046 16.3766 21.9968 17.0429 22.4066C17.7093 22.8164 18.4978 23.0232 19.2978 22.9979C20.0979 22.9727 20.8693 22.7168 21.5039 22.266C22.1384 21.8152 22.6042 21.1922 22.8359 20.4845C23.0676 19.7768 23.0536 19.0198 22.7958 18.3198C22.5381 17.6198 22.0495 17.0119 21.3986 16.5814C20.7478 16.1509 19.9673 15.9195 19.1668 15.9195Z" fill="black"/>
</svg>
