<svg width="13" height="14" viewBox="0 0 13 14" fill="none" xmlns="http://www.w3.org/2000/svg">
<path d="M7.83161 6.6716L1.12101 0.158671C0.991074 0.0505664 0.823937 -0.00592259 0.652995 0.00049212C0.482054 0.00690683 0.3199 0.0757528 0.198937 0.193272C0.0779729 0.310792 0.00710926 0.468329 0.000506543 0.634403C-0.00609617 0.800477 0.0520484 0.962855 0.163321 1.08909L6.31697 7.06752L0.339916 12.8744C0.213412 12.998 0.142406 13.1653 0.142406 13.3396C0.142406 13.5139 0.213412 13.6812 0.339916 13.8048C0.403057 13.8667 0.478179 13.9158 0.560947 13.9493C0.643715 13.9828 0.732491 14 0.822155 14C0.911819 14 1.0006 13.9828 1.08336 13.9493C1.16613 13.9158 1.24125 13.8667 1.30439 13.8048L7.83161 7.46345C7.93945 7.35832 8 7.21595 8 7.06752C8 6.9191 7.93945 6.77673 7.83161 6.6716Z" fill="white"/>
<path d="M12.4855 6.6716L5.77494 0.158671C5.645 0.0505664 5.47787 -0.00592259 5.30693 0.00049212C5.13599 0.00690683 4.97383 0.0757528 4.85287 0.193272C4.7319 0.310792 4.66104 0.468329 4.65444 0.634403C4.64783 0.800477 4.70598 0.962855 4.81725 1.08909L10.9709 7.06752L4.99385 12.8744C4.86734 12.998 4.79634 13.1653 4.79634 13.3396C4.79634 13.5139 4.86734 13.6812 4.99385 13.8048C5.12111 13.9277 5.29325 13.9967 5.47269 13.9967C5.65213 13.9967 5.82428 13.9277 5.95153 13.8048L12.4855 7.46345C12.5934 7.35832 12.6539 7.21595 12.6539 7.06752C12.6539 6.9191 12.5934 6.77673 12.4855 6.6716Z" fill="white"/>
</svg>
